<svg width="20" height="20" viewBox="0 0 20 20" fill="none" xmlns="http://www.w3.org/2000/svg">
<path d="M16.6667 7.5H9.16667C8.24619 7.5 7.5 8.24619 7.5 9.16667V16.6667C7.5 17.5871 8.24619 18.3333 9.16667 18.3333H16.6667C17.5871 18.3333 18.3333 17.5871 18.3333 16.6667V9.16667C18.3333 8.24619 17.5871 7.5 16.6667 7.5Z" stroke="#3485FF" stroke-width="2" stroke-linecap="round" stroke-linejoin="round"/>
<path d="M4.1665 12.5001H3.33317C2.89114 12.5001 2.46722 12.3245 2.15466 12.0119C1.8421 11.6994 1.6665 11.2754 1.6665 10.8334V3.33341C1.6665 2.89139 1.8421 2.46746 2.15466 2.1549C2.46722 1.84234 2.89114 1.66675 3.33317 1.66675H10.8332C11.2752 1.66675 11.6991 1.84234 12.0117 2.1549C12.3242 2.46746 12.4998 2.89139 12.4998 3.33341V4.16675" stroke="#3485FF" stroke-width="2" stroke-linecap="round" stroke-linejoin="round"/>
</svg>
