<svg width="61" height="51" viewBox="0 0 61 51" fill="none" xmlns="http://www.w3.org/2000/svg">
<path d="M33 12V8.5C33 7.672 32.328 7 31.5 7V7C30.672 7 30 7.672 30 8.5" stroke="#303B9F" stroke-width="1.5" stroke-linecap="round" stroke-linejoin="round"/>
<path d="M33 9.5C33 8.672 33.672 8 34.5 8V8C35.328 8 36 8.672 36 9.5V13" stroke="#303B9F" stroke-width="1.5" stroke-linecap="round" stroke-linejoin="round"/>
<path d="M30.0001 12V3.5C30.0001 2.672 29.3281 2 28.5001 2V2C27.6721 2 27.0001 2.672 27.0001 3.5V11V14L25.1161 12.116C24.5001 11.5 23.5001 11.5 22.8841 12.116V12.116C22.3701 12.63 22.2901 13.435 22.6931 14.04L26.2191 19.328C27.3321 20.997 29.2051 22 31.2111 22H33.0001C36.3141 22 39.0001 19.314 39.0001 16V12V10.5C39.0001 9.672 38.3281 9 37.5001 9V9C36.6721 9 36.0001 9.672 36.0001 10.5" stroke="#303B9F" stroke-width="1.5" stroke-linecap="round" stroke-linejoin="round"/>
<path d="M11.6484 38.2734C11.6484 40.1328 11.1823 41.5781 10.25 42.6094C9.32292 43.6406 8.00781 44.1562 6.30469 44.1562C4.58073 44.1562 3.25521 43.6458 2.32812 42.625C1.40625 41.599 0.945312 40.1432 0.945312 38.2578C0.945312 36.3724 1.40885 34.9245 2.33594 33.9141C3.26823 32.9036 4.59635 32.3984 6.32031 32.3984C8.01823 32.3984 9.33073 32.9115 10.2578 33.9375C11.1849 34.9635 11.6484 36.4089 11.6484 38.2734ZM2.92969 38.2734C2.92969 39.6797 3.21354 40.7474 3.78125 41.4766C4.34896 42.2005 5.1901 42.5625 6.30469 42.5625C7.41406 42.5625 8.25 42.2031 8.8125 41.4844C9.38021 40.7656 9.66406 39.6953 9.66406 38.2734C9.66406 36.8724 9.38281 35.8099 8.82031 35.0859C8.26302 34.362 7.42969 34 6.32031 34C5.20052 34 4.35417 34.362 3.78125 35.0859C3.21354 35.8099 2.92969 36.8724 2.92969 38.2734ZM21.5078 44H19.6641V38.6875C19.6641 38.0208 19.5286 37.5234 19.2578 37.1953C18.9922 36.8672 18.5677 36.7031 17.9844 36.7031C17.2083 36.7031 16.6406 36.9323 16.2812 37.3906C15.9219 37.849 15.7422 38.6172 15.7422 39.6953V44H13.9062V35.3594H15.3438L15.6016 36.4922H15.6953C15.9557 36.0807 16.3255 35.763 16.8047 35.5391C17.2839 35.3151 17.8151 35.2031 18.3984 35.2031C20.4714 35.2031 21.5078 36.2578 21.5078 38.3672V44ZM31.7031 44.1562C30.3958 44.1562 29.401 43.776 28.7188 43.0156C28.0417 42.25 27.7031 41.1536 27.7031 39.7266C27.7031 38.2734 28.0573 37.1562 28.7656 36.375C29.4792 35.5938 30.5078 35.2031 31.8516 35.2031C32.763 35.2031 33.5833 35.3724 34.3125 35.7109L33.7578 37.1875C32.9818 36.8854 32.3411 36.7344 31.8359 36.7344C30.3411 36.7344 29.5938 37.7266 29.5938 39.7109C29.5938 40.6797 29.7786 41.4089 30.1484 41.8984C30.5234 42.3828 31.0703 42.625 31.7891 42.625C32.6068 42.625 33.3802 42.4219 34.1094 42.0156V43.6172C33.7812 43.8099 33.4297 43.9479 33.0547 44.0312C32.6849 44.1146 32.2344 44.1562 31.7031 44.1562ZM37.9766 44H36.1406V31.8438H37.9766V44ZM42.4453 44H40.6094V35.3594H42.4453V44ZM40.5 33.0703C40.5 32.7422 40.5885 32.4896 40.7656 32.3125C40.9479 32.1354 41.2057 32.0469 41.5391 32.0469C41.862 32.0469 42.112 32.1354 42.2891 32.3125C42.4714 32.4896 42.5625 32.7422 42.5625 33.0703C42.5625 33.3828 42.4714 33.6302 42.2891 33.8125C42.112 33.9896 41.862 34.0781 41.5391 34.0781C41.2057 34.0781 40.9479 33.9896 40.7656 33.8125C40.5885 33.6302 40.5 33.3828 40.5 33.0703ZM48.5625 44.1562C47.2552 44.1562 46.2604 43.776 45.5781 43.0156C44.901 42.25 44.5625 41.1536 44.5625 39.7266C44.5625 38.2734 44.9167 37.1562 45.625 36.375C46.3385 35.5938 47.3672 35.2031 48.7109 35.2031C49.6224 35.2031 50.4427 35.3724 51.1719 35.7109L50.6172 37.1875C49.8411 36.8854 49.2005 36.7344 48.6953 36.7344C47.2005 36.7344 46.4531 37.7266 46.4531 39.7109C46.4531 40.6797 46.638 41.4089 47.0078 41.8984C47.3828 42.3828 47.9297 42.625 48.6484 42.625C49.4661 42.625 50.2396 42.4219 50.9688 42.0156V43.6172C50.6406 43.8099 50.2891 43.9479 49.9141 44.0312C49.5443 44.1146 49.0938 44.1562 48.5625 44.1562ZM54.7734 39.4375L55.8125 38.1406L58.4219 35.3594H60.5391L57.0625 39.0703L60.7578 44H58.6016L55.8281 40.2109L54.8203 41.0391V44H53V31.8438H54.8203V37.7734L54.7266 39.4375H54.7734Z" fill="#303B9F"/>
</svg>
